<svg width="77" height="15" viewBox="0 0 77 15" fill="none" xmlns="http://www.w3.org/2000/svg">
<path d="M33.1171 6.36736H36.0007C36.5085 6.36736 36.9257 6.24573 37.2521 6.00247C37.5786 5.7592 37.7418 5.36391 37.7418 4.81657C37.7418 4.51249 37.6874 4.26315 37.5786 4.06854C37.4697 3.87393 37.3247 3.72189 37.1433 3.61243C36.9619 3.50296 36.7503 3.42998 36.5085 3.39349C36.2788 3.34484 36.037 3.32051 35.7831 3.32051H33.1171V6.36736ZM30.2697 1.09467H36.3634C36.9801 1.09467 37.5423 1.14941 38.0501 1.25888C38.5579 1.36834 38.9932 1.55079 39.3559 1.80621C39.7186 2.04947 39.9967 2.37788 40.1902 2.79142C40.3957 3.20496 40.4985 3.71581 40.4985 4.32397C40.4985 4.98077 40.3474 5.52811 40.0451 5.96598C39.7549 6.40385 39.3196 6.76266 38.7393 7.04241C39.5373 7.2735 40.1297 7.68097 40.5166 8.26479C40.9156 8.83646 41.1151 9.52975 41.1151 10.3447C41.1151 11.0015 40.9882 11.5731 40.7343 12.0597C40.4804 12.534 40.1358 12.9232 39.7005 13.2273C39.2773 13.5314 38.7876 13.7564 38.2315 13.9024C37.6874 14.0483 37.1252 14.1213 36.5448 14.1213H30.2697V1.09467ZM33.1171 11.8955H36.1639C36.442 11.8955 36.708 11.8711 36.9619 11.8225C37.2158 11.7617 37.4395 11.6704 37.633 11.5488C37.8264 11.415 37.9776 11.2387 38.0864 11.0197C38.2073 10.8008 38.2677 10.521 38.2677 10.1805C38.2677 9.51151 38.0803 9.03715 37.7055 8.7574C37.3307 8.46548 36.835 8.31953 36.2183 8.31953H33.1171V11.8955Z" fill="black"/>
<path d="M43.783 9.4142C43.783 9.79126 43.8193 10.1622 43.8918 10.5271C43.9643 10.8798 44.0853 11.2022 44.2545 11.4941C44.4359 11.7738 44.6717 11.9989 44.9618 12.1691C45.252 12.3394 45.6147 12.4246 46.05 12.4246C46.4853 12.4246 46.848 12.3394 47.1382 12.1691C47.4404 11.9989 47.6762 11.7738 47.8455 11.4941C48.0269 11.2022 48.1538 10.8798 48.2264 10.5271C48.2989 10.1622 48.3352 9.79126 48.3352 9.4142C48.3352 9.03715 48.2989 8.66618 48.2264 8.30128C48.1538 7.93639 48.0269 7.61407 47.8455 7.33432C47.6762 7.05457 47.4404 6.82955 47.1382 6.65927C46.848 6.47682 46.4853 6.3856 46.05 6.3856C45.6147 6.3856 45.252 6.47682 44.9618 6.65927C44.6717 6.82955 44.4359 7.05457 44.2545 7.33432C44.0853 7.61407 43.9643 7.93639 43.8918 8.30128C43.8193 8.66618 43.783 9.03715 43.783 9.4142ZM41.2076 9.4142C41.2076 8.66009 41.3225 7.97896 41.5522 7.37081C41.782 6.75049 42.1084 6.22748 42.5316 5.80178C42.9548 5.36391 43.4626 5.02942 44.055 4.79832C44.6475 4.55506 45.3125 4.43343 46.05 4.43343C46.7875 4.43343 47.4525 4.55506 48.045 4.79832C48.6495 5.02942 49.1634 5.36391 49.5866 5.80178C50.0097 6.22748 50.3362 6.75049 50.5659 7.37081C50.7956 7.97896 50.9105 8.66009 50.9105 9.4142C50.9105 10.1683 50.7956 10.8494 50.5659 11.4576C50.3362 12.0657 50.0097 12.5888 49.5866 13.0266C49.1634 13.4523 48.6495 13.7807 48.045 14.0118C47.4525 14.2429 46.7875 14.3585 46.05 14.3585C45.3125 14.3585 44.6475 14.2429 44.055 14.0118C43.4626 13.7807 42.9548 13.4523 42.5316 13.0266C42.1084 12.5888 41.782 12.0657 41.5522 11.4576C41.3225 10.8494 41.2076 10.1683 41.2076 9.4142Z" fill="black"/>
<path d="M53.3104 11.0562C53.3104 11.336 53.3648 11.5792 53.4737 11.786C53.5946 11.9806 53.7457 12.1448 53.9271 12.2786C54.1084 12.4002 54.314 12.4915 54.5437 12.5523C54.7855 12.6131 55.0334 12.6435 55.2873 12.6435C55.4686 12.6435 55.6561 12.6252 55.8495 12.5888C56.055 12.5401 56.2364 12.4732 56.3936 12.3881C56.5629 12.2908 56.7019 12.1691 56.8107 12.0232C56.9195 11.8651 56.974 11.6704 56.974 11.4394C56.974 11.0501 56.714 10.7582 56.1941 10.5636C55.6863 10.369 54.9729 10.1744 54.054 9.97978C53.6792 9.89464 53.3104 9.79734 52.9477 9.68787C52.5971 9.56624 52.2827 9.4142 52.0046 9.23176C51.7265 9.03715 51.5029 8.79997 51.3336 8.52022C51.1643 8.22831 51.0797 7.87558 51.0797 7.46203C51.0797 6.85388 51.1946 6.35519 51.4243 5.96598C51.6661 5.57676 51.9805 5.27268 52.3674 5.05375C52.7543 4.82265 53.1895 4.66453 53.6732 4.57939C54.1568 4.48208 54.6525 4.43343 55.1603 4.43343C55.6681 4.43343 56.1578 4.48208 56.6294 4.57939C57.113 4.67669 57.5422 4.84089 57.917 5.07199C58.2919 5.30309 58.6002 5.61325 58.842 6.00247C59.0959 6.37952 59.247 6.85996 59.2954 7.44379H56.847C56.8107 6.9451 56.6233 6.61062 56.2848 6.44034C55.9462 6.25789 55.5472 6.16667 55.0878 6.16667C54.9427 6.16667 54.7855 6.17883 54.6162 6.20316C54.447 6.21532 54.2898 6.25181 54.1447 6.31262C54.0117 6.37344 53.8968 6.46466 53.8001 6.58629C53.7034 6.69576 53.655 6.8478 53.655 7.04241C53.655 7.2735 53.7397 7.46203 53.9089 7.60799C54.0782 7.75394 54.2958 7.87558 54.5618 7.97288C54.8399 8.05802 55.1543 8.13708 55.5049 8.21006C55.8555 8.28304 56.2122 8.3621 56.575 8.44724C56.9498 8.53238 57.3125 8.63577 57.6631 8.7574C58.0259 8.87903 58.3463 9.04323 58.6243 9.25C58.9024 9.44461 59.1261 9.69395 59.2954 9.99803C59.4647 10.2899 59.5493 10.6548 59.5493 11.0927C59.5493 11.713 59.4223 12.236 59.1684 12.6617C58.9266 13.0753 58.6062 13.4098 58.2072 13.6652C57.8082 13.9206 57.3488 14.097 56.8289 14.1943C56.321 14.3037 55.8011 14.3585 55.2691 14.3585C54.7251 14.3585 54.1931 14.3037 53.6732 14.1943C53.1533 14.0848 52.6878 13.9024 52.2767 13.6469C51.8777 13.3915 51.5452 13.057 51.2792 12.6435C51.0253 12.2178 50.8862 11.6887 50.8621 11.0562H53.3104Z" fill="black"/>
<path d="M61.782 11.0562C61.782 11.336 61.8364 11.5792 61.9453 11.786C62.0662 11.9806 62.2173 12.1448 62.3987 12.2786C62.58 12.4002 62.7856 12.4915 63.0153 12.5523C63.2571 12.6131 63.505 12.6435 63.7589 12.6435C63.9402 12.6435 64.1276 12.6252 64.3211 12.5888C64.5266 12.5401 64.708 12.4732 64.8652 12.3881C65.0345 12.2908 65.1735 12.1691 65.2823 12.0232C65.3911 11.8651 65.4455 11.6704 65.4455 11.4394C65.4455 11.0501 65.1856 10.7582 64.6657 10.5636C64.1579 10.369 63.4445 10.1744 62.5256 9.97978C62.1508 9.89464 61.782 9.79734 61.4193 9.68787C61.0687 9.56624 60.7543 9.4142 60.4762 9.23176C60.1981 9.03715 59.9745 8.79997 59.8052 8.52022C59.6359 8.22831 59.5513 7.87558 59.5513 7.46203C59.5513 6.85388 59.6661 6.35519 59.8959 5.96598C60.1377 5.57676 60.452 5.27268 60.8389 5.05375C61.2259 4.82265 61.6611 4.66453 62.1448 4.57939C62.6284 4.48208 63.1241 4.43343 63.6319 4.43343C64.1397 4.43343 64.6294 4.48208 65.101 4.57939C65.5846 4.67669 66.0138 4.84089 66.3886 5.07199C66.7634 5.30309 67.0718 5.61325 67.3136 6.00247C67.5675 6.37952 67.7186 6.85996 67.767 7.44379H65.3186C65.2823 6.9451 65.0949 6.61062 64.7564 6.44034C64.4178 6.25789 64.0188 6.16667 63.5594 6.16667C63.4143 6.16667 63.2571 6.17883 63.0878 6.20316C62.9186 6.21532 62.7614 6.25181 62.6163 6.31262C62.4833 6.37344 62.3684 6.46466 62.2717 6.58629C62.175 6.69576 62.1266 6.8478 62.1266 7.04241C62.1266 7.2735 62.2113 7.46203 62.3805 7.60799C62.5498 7.75394 62.7674 7.87558 63.0334 7.97288C63.3115 8.05802 63.6259 8.13708 63.9765 8.21006C64.3271 8.28304 64.6838 8.3621 65.0465 8.44724C65.4214 8.53238 65.7841 8.63577 66.1347 8.7574C66.4974 8.87903 66.8178 9.04323 67.0959 9.25C67.374 9.44461 67.5977 9.69395 67.767 9.99803C67.9362 10.2899 68.0209 10.6548 68.0209 11.0927C68.0209 11.713 67.8939 12.236 67.64 12.6617C67.3982 13.0753 67.0778 13.4098 66.6788 13.6652C66.2798 13.9206 65.8204 14.097 65.3005 14.1943C64.7926 14.3037 64.2727 14.3585 63.7407 14.3585C63.1967 14.3585 62.6647 14.3037 62.1448 14.1943C61.6248 14.0848 61.1594 13.9024 60.7483 13.6469C60.3493 13.3915 60.0168 13.057 59.7508 12.6435C59.4969 12.2178 59.3578 11.6887 59.3336 11.0562H61.782Z" fill="black"/>
<path d="M68.1498 7.58974C68.1861 6.98159 68.3372 6.47683 68.6032 6.07544C68.8692 5.67406 69.2078 5.35174 69.6189 5.10848C70.0299 4.86522 70.4894 4.69494 70.9972 4.59763C71.5171 4.48817 72.037 4.43343 72.5569 4.43343C73.0285 4.43343 73.5061 4.46992 73.9897 4.5429C74.4733 4.60372 74.9146 4.73143 75.3136 4.92604C75.7126 5.12065 76.0391 5.39431 76.293 5.74704C76.5469 6.08761 76.6738 6.54372 76.6738 7.11539V12.0232C76.6738 12.4489 76.698 12.8563 76.7464 13.2456C76.7947 13.6348 76.8794 13.9267 77.0003 14.1213H74.3887C74.3403 13.9753 74.298 13.8294 74.2617 13.6834C74.2375 13.5253 74.2194 13.3672 74.2073 13.2091C73.7962 13.6348 73.3126 13.9328 72.7564 14.1031C72.2002 14.2733 71.632 14.3585 71.0516 14.3585C70.6042 14.3585 70.1871 14.3037 69.8002 14.1943C69.4133 14.0848 69.0748 13.9145 68.7846 13.6834C68.4944 13.4523 68.2647 13.1604 68.0954 12.8077C67.9382 12.455 67.8596 12.0353 67.8596 11.5488C67.8596 11.0136 67.9503 10.5758 68.1317 10.2352C68.3251 9.88248 68.567 9.60273 68.8571 9.39596C69.1594 9.18919 69.4979 9.03715 69.8728 8.93984C70.2597 8.83038 70.6466 8.74523 71.0335 8.68442C71.4204 8.6236 71.8012 8.57495 72.1761 8.53846C72.5509 8.50197 72.8834 8.44724 73.1735 8.37426C73.4637 8.30128 73.6935 8.1979 73.8627 8.0641C74.032 7.91815 74.1106 7.71137 74.0985 7.44379C74.0985 7.16404 74.0501 6.9451 73.9534 6.78698C73.8688 6.6167 73.7479 6.48899 73.5907 6.40385C73.4456 6.30654 73.2703 6.24573 73.0647 6.2214C72.8713 6.18491 72.6597 6.16667 72.43 6.16667C71.9221 6.16667 71.5232 6.27613 71.233 6.49507C70.9428 6.714 70.7735 7.0789 70.7252 7.58974H68.1498ZM74.0985 9.50542C73.9897 9.60273 73.8506 9.68179 73.6814 9.7426C73.5242 9.79126 73.3489 9.83383 73.1554 9.87032C72.9741 9.90681 72.7806 9.93721 72.5751 9.96154C72.3695 9.98587 72.164 10.0163 71.9584 10.0528C71.765 10.0893 71.5715 10.1379 71.3781 10.1987C71.1967 10.2595 71.0335 10.3447 70.8884 10.4541C70.7554 10.5514 70.6466 10.6792 70.5619 10.8373C70.4773 10.9954 70.435 11.1961 70.435 11.4394C70.435 11.6704 70.4773 11.8651 70.5619 12.0232C70.6466 12.1813 70.7614 12.309 70.9065 12.4063C71.0516 12.4915 71.2209 12.5523 71.4143 12.5888C71.6078 12.6252 71.8073 12.6435 72.0128 12.6435C72.5206 12.6435 72.9136 12.5584 73.1917 12.3881C73.4698 12.2178 73.6753 12.0171 73.8083 11.786C73.9413 11.5427 74.0199 11.2995 74.0441 11.0562C74.0804 10.813 74.0985 10.6183 74.0985 10.4724V9.50542Z" fill="black"/>
<path d="M25.029 15.0001H0.000976562V0H25.029V15.0001ZM3.97112 7.51478L12.5295 13.0474L21.0436 7.51478L12.5295 1.98219L3.97112 7.51478Z" fill="#2CC55F"/>
</svg>
